<svg width="16" height="21" viewBox="0 0 16 21" fill="none" xmlns="http://www.w3.org/2000/svg">
<path d="M14.7102 7.28994L8.71019 1.28994C8.61722 1.19621 8.50662 1.12182 8.38476 1.07105C8.2629 1.02028 8.1322 0.994141 8.00019 0.994141C7.86817 0.994141 7.73747 1.02028 7.61561 1.07105C7.49375 1.12182 7.38315 1.19621 7.29019 1.28994L1.29019 7.28994C1.10188 7.47824 0.996094 7.73364 0.996094 7.99994C0.996094 8.26624 1.10188 8.52164 1.29019 8.70994C1.47849 8.89824 1.73388 9.00403 2.00019 9.00403C2.26649 9.00403 2.52188 8.89824 2.71019 8.70994L7.00019 4.40994V19.9999C7.00019 20.2652 7.10554 20.5195 7.29308 20.707C7.48062 20.8946 7.73497 20.9999 8.00019 20.9999C8.2654 20.9999 8.51976 20.8946 8.70729 20.707C8.89483 20.5195 9.00019 20.2652 9.00019 19.9999V4.40994L13.2902 8.70994C13.3831 8.80367 13.4937 8.87806 13.6156 8.92883C13.7375 8.9796 13.8682 9.00574 14.0002 9.00574C14.1322 9.00574 14.2629 8.9796 14.3848 8.92883C14.5066 8.87806 14.6172 8.80367 14.7102 8.70994C14.8039 8.61698 14.8783 8.50637 14.9291 8.38452C14.9798 8.26266 15.006 8.13195 15.006 7.99994C15.006 7.86793 14.9798 7.73722 14.9291 7.61536C14.8783 7.4935 14.8039 7.3829 14.7102 7.28994Z" fill="black" fill-opacity="0.65"/>
</svg>