<svg width="24" height="24" viewBox="0 0 24 24" fill="none" xmlns="http://www.w3.org/2000/svg">
<path d="M19.9984 18.9995H17.9984V9.99945H18.9984C19.4599 10.0009 19.9077 9.84265 20.2659 9.55158C20.6241 9.26052 20.8705 8.85454 20.9635 8.40248C21.0565 7.95043 20.9903 7.48012 20.7761 7.0713C20.562 6.66249 20.213 6.34033 19.7884 6.15945L12.7884 3.15945C12.538 3.05548 12.2695 3.00195 11.9984 3.00195C11.7272 3.00195 11.4588 3.05548 11.2084 3.15945L4.20838 6.15945C3.78377 6.34033 3.43479 6.66249 3.22061 7.0713C3.00642 7.48012 2.94022 7.95043 3.03322 8.40248C3.12622 8.85454 3.3727 9.26052 3.73087 9.55158C4.08904 9.84265 4.53685 10.0009 4.99838 9.99945H5.99838V18.9995H3.99838C3.73316 18.9995 3.47881 19.1048 3.29127 19.2923C3.10373 19.4799 2.99838 19.7342 2.99838 19.9995C2.99838 20.2647 3.10373 20.519 3.29127 20.7066C3.47881 20.8941 3.73316 20.9995 3.99838 20.9995H19.9984C20.2636 20.9995 20.5179 20.8941 20.7055 20.7066C20.893 20.519 20.9984 20.2647 20.9984 19.9995C20.9984 19.7342 20.893 19.4799 20.7055 19.2923C20.5179 19.1048 20.2636 18.9995 19.9984 18.9995ZM15.9984 18.9995H12.9984V9.99945H15.9984V18.9995ZM7.99838 9.99945H10.9984V18.9995H7.99838V9.99945Z" fill="#00B259"/>
</svg>
